HIERARCHY
ROOT hip
{
  OFFSET 0 0 0
  CHANNELS 6 Xposition Yposition Zposition Zrotation Yrotation Xrotation
  JOINT abdomen
  {
    OFFSET 0 20.6881 -0.73152
    CHANNELS 3 Zrotation Xrotation Yrotation
    JOINT chest
    {
      OFFSET 0 11.7043 -0.48768
      CHANNELS 3 Zrotation Xrotation Yrotation
      JOINT neck
      {
        OFFSET 0 22.1894 -2.19456
        CHANNELS 3 Zrotation Xrotation Yrotation
        JOINT head
        {
          OFFSET -0.24384 7.07133 1.2192
          CHANNELS 3 Zrotation Xrotation Yrotation
          JOINT leftEye
          {
            OFFSET 4.14528 8.04674 8.04672
            CHANNELS 3 Zrotation Xrotation Yrotation
            End Site
            {
              OFFSET 1 0 0
            }
          }
          JOINT rightEye
          {
            OFFSET -3.6576 8.04674 8.04672
            CHANNELS 3 Zrotation Xrotation Yrotation
            End Site
            {
              OFFSET 1 0 0
            }
          }
        }
      }
      JOINT rCollar
      {
        OFFSET -2.68224 19.2634 -4.8768
        CHANNELS 3 Zrotation Xrotation Yrotation
        JOINT rShldr
        {
          OFFSET -8.77824 -1.95073 1.46304
          CHANNELS 3 Zrotation Xrotation Yrotation
          JOINT rForeArm
          {
            OFFSET -28.1742 -1.7115 0.48768
            CHANNELS 3 Zrotation Xrotation Yrotation
            JOINT rHand
            {
              OFFSET -22.5879 0.773209 7.07136
              CHANNELS 3 Zrotation Xrotation Yrotation
              JOINT rThumb1
              {
                OFFSET -1.2192 -0.487915 3.41376
                CHANNELS 3 Zrotation Xrotation Yrotation
                JOINT rThumb2
                {
                  OFFSET -3.37035 -0.52449 3.41376
                  CHANNELS 3 Zrotation Xrotation Yrotation
                  End Site
                  {
                    OFFSET -1.78271 -1.18214 1.43049
                  }
                }
              }
              JOINT rIndex1
              {
                OFFSET -7.75947 0.938293 5.60832
                CHANNELS 3 Zrotation Xrotation Yrotation
                JOINT rIndex2
                {
                  OFFSET -2.54057 -0.884171 1.56538
                  CHANNELS 3 Zrotation Xrotation Yrotation
                  End Site
                  {
                    OFFSET -1.62519 -0.234802 1.16502
                  }
                }
              }
              JOINT rMid1
              {
                OFFSET -8.24714 1.18213 3.41376
                CHANNELS 3 Zrotation Xrotation Yrotation
                JOINT rMid2
                {
                  OFFSET -3.10165 -0.590103 1.0647
                  CHANNELS 3 Zrotation Xrotation Yrotation
                  End Site
                  {
                    OFFSET -2.48547 -0.328903 0.83742
                  }
                }
              }
              JOINT rRing1
              {
                OFFSET -8.82822 0.546677 1.51678
                CHANNELS 3 Zrotation Xrotation Yrotation
                JOINT rRing2
                {
                  OFFSET -2.60934 -0.819778 -0.0198488
                  CHANNELS 3 Zrotation Xrotation Yrotation
                  End Site
                  {
                    OFFSET -2.33842 -0.294052 0.168128
                  }
                }
              }
              JOINT rPinky1
              {
                OFFSET -8.27202 -0.0477905 -0.4584
                CHANNELS 3 Zrotation Xrotation Yrotation
                JOINT rPinky2
                {
                  OFFSET -1.82734 -0.647385 -0.700984
                  CHANNELS 3 Zrotation Xrotation Yrotation
                  End Site
                  {
                    OFFSET -1.69225 -0.51767 -0.607171
                  }
                }
              }
            }
          }
        }
      }
      JOINT lCollar
      {
        OFFSET 2.68224 19.2634 -4.8768
        CHANNELS 3 Zrotation Xrotation Yrotation
        JOINT lShldr
        {
          OFFSET 8.77824 -1.95073 1.46304
          CHANNELS 3 Zrotation Xrotation Yrotation
          JOINT lForeArm
          {
            OFFSET 28.1742 -1.7115 0.48768
            CHANNELS 3 Zrotation Xrotation Yrotation
            JOINT lHand
            {
              OFFSET 22.5879 0.773209 7.07136
              CHANNELS 3 Zrotation Xrotation Yrotation
              JOINT lThumb1
              {
                OFFSET 1.2192 -0.487915 3.41376
                CHANNELS 3 Zrotation Xrotation Yrotation
                JOINT lThumb2
                {
                  OFFSET 3.37035 -0.52449 3.41376
                  CHANNELS 3 Zrotation Xrotation Yrotation
                  End Site
                  {
                    OFFSET 1.78271 -1.18214 1.43049
                  }
                }
              }
              JOINT lIndex1
              {
                OFFSET 7.75947 0.938293 5.60832
                CHANNELS 3 Zrotation Xrotation Yrotation
                JOINT lIndex2
                {
                  OFFSET 2.54057 -0.884171 1.56538
                  CHANNELS 3 Zrotation Xrotation Yrotation
                  End Site
                  {
                    OFFSET 1.62519 -0.234802 1.16502
                  }
                }
              }
              JOINT lMid1
              {
                OFFSET 8.24714 1.18213 3.41376
                CHANNELS 3 Zrotation Xrotation Yrotation
                JOINT lMid2
                {
                  OFFSET 3.10165 -0.590103 1.0647
                  CHANNELS 3 Zrotation Xrotation Yrotation
                  End Site
                  {
                    OFFSET 2.48547 -0.328903 0.83742
                  }
                }
              }
              JOINT lRing1
              {
                OFFSET 8.82822 0.546677 1.51678
                CHANNELS 3 Zrotation Xrotation Yrotation
                JOINT lRing2
                {
                  OFFSET 2.60934 -0.819778 -0.0198488
                  CHANNELS 3 Zrotation Xrotation Yrotation
                  End Site
                  {
                    OFFSET 2.33842 -0.294052 0.168128
                  }
                }
              }
              JOINT lPinky1
              {
                OFFSET 8.27202 -0.0477905 -0.4584
                CHANNELS 3 Zrotation Xrotation Yrotation
                JOINT lPinky2
                {
                  OFFSET 1.82734 -0.647385 -0.700984
                  CHANNELS 3 Zrotation Xrotation Yrotation
                  End Site
                  {
                    OFFSET 1.69225 -0.51767 -0.607171
                  }
                }
              }
            }
          }
        }
      }
    }
  }
  JOINT rButtock
  {
    OFFSET -8.77824 4.35084 1.2192
    CHANNELS 3 Zrotation Xrotation Yrotation
    JOINT rThigh
    {
      OFFSET 0 -1.70687 -2.19456
      CHANNELS 3 Zrotation Xrotation Yrotation
      JOINT rShin
      {
        OFFSET 0 -36.8199 0.73152
        CHANNELS 3 Zrotation Xrotation Yrotation
        JOINT rFoot
        {
          OFFSET 0.73152 -45.1104 -5.12064
          CHANNELS 3 Zrotation Xrotation Yrotation
          End Site
          {
            OFFSET -1.1221 -3.69964 12.103
          }
        }
      }
    }
  }
  JOINT lButtock
  {
    OFFSET 8.77824 4.35084 1.2192
    CHANNELS 3 Zrotation Xrotation Yrotation
    JOINT lThigh
    {
      OFFSET 0 -1.70687 -2.19456
      CHANNELS 3 Zrotation Xrotation Yrotation
      JOINT lShin
      {
        OFFSET 0 -36.8199 0.73152
        CHANNELS 3 Zrotation Xrotation Yrotation
        JOINT lFoot
        {
          OFFSET -0.73152 -45.1104 -5.12064
          CHANNELS 3 Zrotation Xrotation Yrotation
          End Site
          {
            OFFSET 1.1221 -3.69964 12.103
          }
        }
      }
    }
  }
}
MOTION
Frames:	4
Frame Time:	0.03333
7.52760960534215 -4.217223167419434 16.444301262497902 -17.61501207947731 -19.007401764392853 18.466743528842926 4.681808240711689 12.594399601221085 7.705575451254845 3.1441085413098335 -8.056431859731674 0.860438235104084 -4.319419339299202 12.916707247495651 -2.016999050974846 7.725593447685242 -32.60773301124573 0.7783790677785873 0.8900457993149757 0.4042127961292863 -0.289079372305423 0.13592192670330405 -0.5489007895812392 0.08861309266649187 -0.6599935702979565 -0.511675039306283 0.5230395589023829 29.550787210464478 29.097145199775696 37.547254264354706 -23.254435658454895 -23.066029250621796 58.89816105365753 -9.72196564078331 -32.744906544685364 -11.84975266456604 -0.36794011015444994 0.09070780361071229 0.39148638490587473 0.24636146379634738 0.5251645809039474 0.735355680808425 -1.8108753114938736 -0.5301730614155531 -0.4470926010981202 6.795376539230347 5.889831930398941 0.09588670916855335 -0.9689387027174234 1.7227977700531483 1.00375235080719 4.083692394196987 0.1535635907202959 -0.18067378783598542 0.39696240797638893 0.32226705690845847 0.13256153790280223 9.040657728910446 0.7088920008391142 -0.6188950873911381 -0.030123889446258545 0.6912020361050963 -0.29645001981407404 1.4742322638630867 0.5020247027277946 -0.7142580952495337 -0.10663616470992565 0.2664816565811634 -0.3669966431334615 -49.27446484565735 16.22844949364662 -45.321441292762756 8.461775332689285 -1.0984356701374054 -16.867230981588364 -4.123777002096176 27.759771645069122 -9.785393849015236 -1.21109657920897 1.0184551309794188 0.6102267745882273 0.7360362913459539 -0.6279453635215759 -0.17601256957277656 0.3206121549010277 -0.10503416298888624 0.9677447006106377 -7.350587099790573 6.317007914185524 -0.5769516667351127 0.42493822518736124 -0.7529197074472904 0.07794983976054937 -4.314074367284775 2.196504883468151 -0.4310872731730342 -0.49477661959826946 0.22159222746267915 -0.22185407811775804 -8.261042833328247 1.0653593391180038 0.6513632694259286 1.3131584879010916 -1.0220218822360039 1.1400121729820967 -2.215026877820492 -1.9509778171777725 0.42400339152663946 -0.1519866823218763 -1.3765780627727509 -0.7960067968815565 -11.226538717746735 9.466564357280731 9.616190046072006 4.620961993932724 48.48237633705139 -9.709273427724838 -2.7013955265283585 10.895650684833527 -24.86452281475067 0.10863914620131254 0.09797258768230677 -0.8060595486313105 73.25846672058105 -65.11046290397644 74.50236797332764 9.511386752128601 87.41761207580566 -7.5741492211818695 5.197599045932293 -7.454958558082581 19.629073441028595
8.038666028529406 -4.008609771728516 18.036747351288795 -12.464584708213806 -17.563418447971344 5.872257426381111 3.8977495953440666 12.262668013572693 7.5431931763887405 2.6866862922906876 -8.88253077864647 1.3078320398926735 -5.069710984826088 13.186703771352768 -3.040761351585388 8.434855341911316 -33.250387609004974 -1.2507965415716171 0.5802852334454656 0.18066056538373232 0.18715186743065715 0.5170731525868177 -0.4967009788379073 0.5006939498707652 -0.7103937026113272 -0.6685426086187363 0.5218457244336605 29.995167553424835 35.9271115064621 53.10058236122131 -22.183689773082733 -22.643873691558838 57.62845158576965 -5.651189759373665 -38.52130651473999 -8.059479519724846 -0.4315034346655011 0.2426116936840117 0.2370212785899639 0.03934003034373745 0.2605811320245266 0.6006141565740108 -1.3876504730433226 -0.1448340795468539 -0.4762866022065282 7.4068571627140045 5.948604494333267 -0.1287664007395506 -0.9572561737149954 1.3800942711532116 0.3423464088700712 3.9678018540143967 0.46156186144798994 -0.20335018867626786 0.04443144192919135 0.417089369148016 -0.24862841237336397 9.387519657611847 1.1574462801218033 -0.5426423996686935 0.03659157548099756 0.5893668159842491 -0.39603432174772024 1.9012412801384926 0.2778087090700865 -0.377612030133605 -0.018178788159275427 0.4705926077440381 -0.5161491315811872 -46.59450888633728 22.132810950279236 -55.89022994041443 10.751814544200897 -4.507540762424469 -20.4185950756073 -1.7919441126286983 37.13165134191513 -15.290561467409134 -1.0227034147828817 1.1263051629066467 0.7118027005344629 0.6013181526213884 -0.41919301729649305 0.058297241921536624 0.6994105596095324 0.13335741008631885 0.9590471349656582 -7.445596307516098 6.194369941949844 -0.5995925283059478 0.3073134273290634 -0.9040346089750528 0.07137792475987226 -4.005253873765469 2.352646831423044 -0.48501668963581324 -0.4200028348714113 0.7877210341393948 -0.20743774948641658 -8.824374452233315 1.192126153036952 0.20445215748623013 0.8732521533966064 -1.1130632646381855 1.1185899563133717 -1.8323259428143501 -1.5702182985842228 0.42077229358255863 -0.38279062137007713 -1.091038640588522 -0.5538630019873381 -14.644590318202972 -2.9848265647888184 -1.644890159368515 13.294342160224915 64.10097599029541 -11.564771980047226 -3.0682137608528137 2.006336599588394 -17.605677992105484 -0.20187220769003034 -0.004339600054663606 -0.6744000921025872 64.54293429851532 -65.02804398536682 69.12056386470795 12.473879903554916 80.0524914264679 -18.467898219823837 5.2736664935946465 -4.9223792552948 22.41674691438675
8.592217523604631 -3.8460588455200195 19.756325021386147 -10.515253767371178 -15.74617624282837 9.648910984396935 -0.5338579136878252 12.261521369218826 6.213439777493477 3.295384794473648 -8.990792781114578 0.3414919367060065 -4.929376468062401 13.857376724481583 -3.505978100001812 8.529548719525337 -33.73451828956604 -2.307027652859688 0.7904160674661398 0.19339971709996462 0.2562421769835055 0.585822737775743 -0.7170143164694309 0.5227291770279408 -0.6732469936832786 -0.5316306324675679 0.32404651399701834 25.058687925338745 36.990333795547485 63.66102933883667 -22.345008552074432 -26.165517568588257 63.495354652404785 -8.62927995622158 -45.96826672554016 -8.239592537283897 -0.5252949194982648 0.10642088600434363 0.18190179951488972 -0.07635403540916741 0.573537340387702 0.46213623136281967 -1.3723788131028414 -0.2654444589279592 -0.4247168591246009 7.56913885474205 5.632324442267418 -0.42118937708437443 -0.8516133483499289 1.5206629782915115 0.4706710623577237 3.872898928821087 0.3942373674362898 -0.528323594480753 -0.30569087946787477 0.5317060276865959 -0.04179268522420898 9.563581869006157 1.0330918617546558 -0.782148577272892 0.04775157663971186 0.7158740423619747 -0.45369749888777733 1.8496885523200035 0.41832955554127693 -0.06087640067562461 0.12655029888264835 0.8343880344182253 -0.46560277696698904 -46.51608645915985 19.843982756137848 -62.30921745300293 12.121870815753937 -5.61435230076313 -23.19952815771103 -0.4016311280429363 32.6039645075798 -10.834030285477638 -1.1459816806018353 1.187662035226822 1.0878156311810017 0.544740348123014 -0.4284009989351034 0.25648816488683224 0.9165875986218452 0.41914515662938356 0.772213926538825 -7.510220780968666 6.124841719865799 -0.6385084893554449 0.20905505865812302 -0.8960853796452284 0.023331032716669142 -4.004246033728123 2.0755111053586006 -0.3869533259421587 -0.6658174423500896 0.8896406181156635 -0.4309767996892333 -9.093030542135239 1.457683201879263 0.07598203606903553 0.9235316701233387 -1.3020941242575645 1.3324177544564009 -1.9368710741400719 -1.4197053015232086 0.1834712689742446 -0.6412947177886963 -1.3214850705116987 -0.41949212551116943 -16.365378946065903 -13.21778118610382 -5.793183892965317 -9.172468855977058 75.90654730796814 10.80373004078865 -1.8764947168529034 2.23696768283844 -9.448585510253906 -0.3878204757347703 -0.06960230239201337 -0.8778445143252611 55.448845624923706 -64.46876049041748 61.2360280752182 10.864514261484146 80.37571907043457 -13.493848890066147 7.058057337999344 -3.4449930489063263 25.260728001594543
9.126859206706285 -3.65912127494812 21.716703787446022 -13.383522927761078 -12.940478324890137 5.230750814080238 -5.259046107530594 13.590412437915802 5.324296206235886 3.8184259459376335 -9.117833599448204 -0.21884813904762268 -4.935987778007984 14.444657117128372 -3.9704931154847145 9.069299697875977 -34.3919974565506 -3.0934754759073257 0.7053814083337784 0.3738652775064111 0.5092221591621637 0.5384540464729071 -0.8398287277668715 0.6555685121566057 -0.7273034378886223 -0.4360191849991679 0.3437306173145771 18.76020535826683 32.776315212249756 69.01432693004608 -22.99649566411972 -27.406339645385742 65.01817345619202 -7.9493198543787 -46.59379005432129 -7.94230118393898 -0.6295701116323471 -0.0341438187751919 0.09700711816549301 -0.1243739586789161 0.7326089311391115 0.18484814325347543 -1.2688312120735645 -0.19376636249944568 -0.4237521020695567 7.835414484143257 5.605277046561241 -0.5928153824061155 -0.86154380813241 1.4021762274205685 0.48406857065856457 3.876655697822571 0.4995331820100546 -0.6687757512554526 -0.493489159271121 0.5607810895889997 0.037595001922454685 9.755127802491188 0.913551589474082 -0.9930186532437801 0.0144639378413558 0.6592135084792972 -0.5503148585557938 1.9423605501651764 0.28601350262761116 0.12890220852568746 0.3044360247440636 0.8943819254636765 -0.562084224075079 -44.525501132011414 21.429826766252518 -63.39886486530304 12.495942413806915 -4.3693674355745316 -21.461191177368164 -0.558022353798151 28.71567875146866 -9.075026884675026 -1.170332869514823 1.3041574973613024 1.1655889637768269 0.5650300020352006 -0.5078054079785943 0.40029446594417095 1.0987092554569244 0.5199861992150545 0.8155830670148134 -7.6938823610544205 6.173508390784264 -0.5365734826773405 0.3258984535932541 -1.003037542104721 0.07129245030228049 -4.1017624363303185 2.087610214948654 -0.361618478782475 -0.7680844981223345 0.9661226347088814 -0.6300064735114574 -9.404561072587967 1.5655282884836197 0.09636725415475667 0.8222111407667398 -1.4183291606605053 1.325720278546214 -2.159044314175844 -1.2354697287082672 0.15199876273982227 -0.8681342471390963 -1.4013298228383064 -0.3146770969033241 -17.63340398669243 -19.139834493398666 -8.82403314113617 -66.6326755285263 77.9566240310669 66.69913530349731 -0.07179837673902512 1.9195027649402618 -5.110055431723595 -0.3988981666043401 -0.12843650998547673 -1.0151899605989456 49.43630933761597 -62.767231464385986 56.6262549161911 5.443095266819 79.99631524085999 -2.9750914871692657 9.250242859125137 -6.799805536866188 27.945198118686676
